# xmcd
#
# Track frame offsets:
#	150
#	12014
#	25256
#	41975
#	60367
#	70831
#	86411
#	95761
#	108818
#	119570
#
# Disc length: 1701 seconds
#
# Revision: 0
# Processed by: cddbd v1.5.2PL0 Copyright (c) Steve Scherf et al.
# Submitted via: EZCDAudioConverter 7.1.5.1
#
DISCID=7b06a30a
DTITLE=Generation Country - Un jour à la fois
DYEAR=1900
DGENRE=Country
TTITLE0=Un jour à la fois
TTITLE1=Trop longue
TTITLE2=Je pensais toujours à toi
TTITLE3=Le bouquet d'or
TTITLE4=Chanteuse de prairies
TTITLE5=Pardonne-moi
TTITLE6=Jamaba la ya
TTITLE7=Je fais semblant
TTITLE8=L'amour vrai
TTITLE9=Mon sourire et ma limo
EXTD=
EXTT0=
EXTT1=
EXTT2=
EXTT3=
EXTT4=
EXTT5=
EXTT6=
EXTT7=
EXTT8=
EXTT9=
PLAYORDER=
